# xmcd CD database file generated by Grip 2.95
# 
# Track frame offsets:
#       150
#       11478
#       23669
#       37349
#       50241
#       61205
#       74505
#       86107
#       103076
#       113548
#       127390
#       141909
#       156835
#       172277
# 
# Disc length: 2557 seconds
# 
# Revision: 3
# Processed by: cddbd v1.4PL0 Copyright (c) Steve Scherf et al.
# Submitted via: Grip 2.95
# 
DISCID=d409fb0e
DTITLE=John Clinch - Domino Effect
DYEAR=1900
DGENRE=
TTITLE0=Don't Cry The Blues At Me
TTITLE1=Older But No Wiser
TTITLE2=Arrow Thru' My Heart
TTITLE3=Here I Go Again
TTITLE4=No One Like You
TTITLE5=Lost In The Arms Of Love
TTITLE6=Forever Blue
TTITLE7=I Wish I Could Go
TTITLE8=Oh' So Lonely
TTITLE9=Save All Your Love For Me
TTITLE10=Forever To Forget
TTITLE11=Domino Effect
TTITLE12=Lord, He's So Weary
TTITLE13=When Love Calls
EXTD=
EXTT0=
EXTT1=
EXTT2=
EXTT3=
EXTT4=
EXTT5=
EXTT6=
EXTT7=
EXTT8=
EXTT9=
EXTT10=
EXTT11=
EXTT12=
EXTT13=
PLAYORDER=
